<svg xmlns="http://www.w3.org/2000/svg" xmlns:xlink="http://www.w3.org/1999/xlink" width="500" zoomAndPan="magnify" viewBox="0 0 375 374.999991" height="500" preserveAspectRatio="xMidYMid meet" version="1.0"><defs><g/><clipPath id="ba68f4f1c0"><path d="M 146.667969 186 L 152 186 L 152 196 L 146.667969 196 Z M 146.667969 186 " clip-rule="nonzero"/></clipPath><clipPath id="7210de275c"><path d="M 160 205 L 187 205 L 187 211.574219 L 160 211.574219 Z M 160 205 " clip-rule="nonzero"/></clipPath><clipPath id="7abbf6f05e"><path d="M 194 186 L 199.445312 186 L 199.445312 196 L 194 196 Z M 194 186 " clip-rule="nonzero"/></clipPath><clipPath id="bb9f217551"><path d="M 184 152.199219 L 196 152.199219 L 196 164 L 184 164 Z M 184 152.199219 " clip-rule="nonzero"/></clipPath><clipPath id="471d0b444c"><path d="M 149 152.199219 L 161 152.199219 L 161 164 L 149 164 Z M 149 152.199219 " clip-rule="nonzero"/></clipPath></defs><g fill="#800020" fill-opacity="1"><g transform="translate(51.97072, 207.291776)"><g><path d="M 18.6875 0.53125 C 15.519531 0.53125 12.671875 -0.164062 10.140625 -1.5625 C 7.609375 -2.96875 5.617188 -4.957031 4.171875 -7.53125 C 2.734375 -10.101562 2.015625 -13.066406 2.015625 -16.421875 C 2.015625 -19.785156 2.753906 -22.753906 4.234375 -25.328125 C 5.722656 -27.898438 7.75 -29.882812 10.3125 -31.28125 C 12.882812 -32.6875 15.753906 -33.390625 18.921875 -33.390625 C 22.085938 -33.390625 24.953125 -32.6875 27.515625 -31.28125 C 30.085938 -29.882812 32.113281 -27.898438 33.59375 -25.328125 C 35.082031 -22.753906 35.828125 -19.785156 35.828125 -16.421875 C 35.828125 -13.066406 35.0625 -10.101562 33.53125 -7.53125 C 32.007812 -4.957031 29.953125 -2.96875 27.359375 -1.5625 C 24.773438 -0.164062 21.882812 0.53125 18.6875 0.53125 Z M 18.6875 -6.703125 C 20.1875 -6.703125 21.597656 -7.066406 22.921875 -7.796875 C 24.242188 -8.523438 25.300781 -9.617188 26.09375 -11.078125 C 26.882812 -12.546875 27.28125 -14.328125 27.28125 -16.421875 C 27.28125 -19.546875 26.457031 -21.945312 24.8125 -23.625 C 23.175781 -25.3125 21.171875 -26.15625 18.796875 -26.15625 C 16.429688 -26.15625 14.445312 -25.3125 12.84375 -23.625 C 11.238281 -21.945312 10.4375 -19.546875 10.4375 -16.421875 C 10.4375 -13.304688 11.21875 -10.90625 12.78125 -9.21875 C 14.34375 -7.539062 16.3125 -6.703125 18.6875 -6.703125 Z M 18.6875 -6.703125 "/></g></g></g><g fill="#800020" fill-opacity="1"><g transform="translate(85.056892, 207.291776)"><g><path d="M 12.390625 -28.0625 C 13.460938 -29.632812 14.9375 -30.914062 16.8125 -31.90625 C 18.6875 -32.894531 20.832031 -33.390625 23.25 -33.390625 C 26.0625 -33.390625 28.601562 -32.695312 30.875 -31.3125 C 33.144531 -29.925781 34.941406 -27.957031 36.265625 -25.40625 C 37.585938 -22.863281 38.25 -19.910156 38.25 -16.546875 C 38.25 -13.179688 37.585938 -10.203125 36.265625 -7.609375 C 34.941406 -5.023438 33.144531 -3.019531 30.875 -1.59375 C 28.601562 -0.175781 26.0625 0.53125 23.25 0.53125 C 20.800781 0.53125 18.65625 0.046875 16.8125 -0.921875 C 14.976562 -1.890625 13.503906 -3.144531 12.390625 -4.6875 L 12.390625 0 L 4.09375 0 L 4.09375 -43.890625 L 12.390625 -43.890625 Z M 29.78125 -16.546875 C 29.78125 -18.523438 29.375 -20.234375 28.5625 -21.671875 C 27.75 -23.117188 26.679688 -24.21875 25.359375 -24.96875 C 24.035156 -25.71875 22.601562 -26.09375 21.0625 -26.09375 C 19.550781 -26.09375 18.132812 -25.707031 16.8125 -24.9375 C 15.488281 -24.164062 14.421875 -23.046875 13.609375 -21.578125 C 12.796875 -20.117188 12.390625 -18.398438 12.390625 -16.421875 C 12.390625 -14.453125 12.796875 -12.734375 13.609375 -11.265625 C 14.421875 -9.804688 15.488281 -8.691406 16.8125 -7.921875 C 18.132812 -7.148438 19.550781 -6.765625 21.0625 -6.765625 C 22.601562 -6.765625 24.035156 -7.160156 25.359375 -7.953125 C 26.679688 -8.742188 27.75 -9.867188 28.5625 -11.328125 C 29.375 -12.785156 29.78125 -14.523438 29.78125 -16.546875 Z M 29.78125 -16.546875 "/></g></g></g><g fill="#800020" fill-opacity="1"><g transform="translate(120.514964, 207.291776)"><g><path d="M 16.671875 0.53125 C 13.984375 0.53125 11.570312 0.046875 9.4375 -0.921875 C 7.300781 -1.890625 5.609375 -3.203125 4.359375 -4.859375 C 3.109375 -6.523438 2.425781 -8.363281 2.3125 -10.375 L 10.671875 -10.375 C 10.828125 -9.113281 11.445312 -8.066406 12.53125 -7.234375 C 13.625 -6.398438 14.984375 -5.984375 16.609375 -5.984375 C 18.191406 -5.984375 19.425781 -6.300781 20.3125 -6.9375 C 21.207031 -7.570312 21.65625 -8.382812 21.65625 -9.375 C 21.65625 -10.4375 21.109375 -11.234375 20.015625 -11.765625 C 18.929688 -12.304688 17.203125 -12.890625 14.828125 -13.515625 C 12.378906 -14.109375 10.375 -14.722656 8.8125 -15.359375 C 7.25 -15.992188 5.898438 -16.960938 4.765625 -18.265625 C 3.640625 -19.566406 3.078125 -21.328125 3.078125 -23.546875 C 3.078125 -25.367188 3.601562 -27.03125 4.65625 -28.53125 C 5.707031 -30.03125 7.207031 -31.210938 9.15625 -32.078125 C 11.113281 -32.953125 13.421875 -33.390625 16.078125 -33.390625 C 19.992188 -33.390625 23.113281 -32.410156 25.4375 -30.453125 C 27.769531 -28.492188 29.054688 -25.851562 29.296875 -22.53125 L 21.359375 -22.53125 C 21.234375 -23.84375 20.6875 -24.882812 19.71875 -25.65625 C 18.75 -26.425781 17.457031 -26.8125 15.84375 -26.8125 C 14.332031 -26.8125 13.171875 -26.535156 12.359375 -25.984375 C 11.554688 -25.429688 11.15625 -24.660156 11.15625 -23.671875 C 11.15625 -22.554688 11.707031 -21.710938 12.8125 -21.140625 C 13.914062 -20.566406 15.632812 -19.984375 17.96875 -19.390625 C 20.34375 -18.796875 22.300781 -18.179688 23.84375 -17.546875 C 25.382812 -16.921875 26.71875 -15.945312 27.84375 -14.625 C 28.96875 -13.300781 29.550781 -11.550781 29.59375 -9.375 C 29.59375 -7.476562 29.066406 -5.773438 28.015625 -4.265625 C 26.972656 -2.765625 25.472656 -1.585938 23.515625 -0.734375 C 21.554688 0.109375 19.273438 0.53125 16.671875 0.53125 Z M 16.671875 0.53125 "/></g></g></g><g fill="#800020" fill-opacity="1"><g transform="translate(148.094939, 207.291776)"><g/></g></g><g fill="#800020" fill-opacity="1"><g transform="translate(157.461921, 207.291776)"><g/></g></g><g fill="#800020" fill-opacity="1"><g transform="translate(166.828902, 207.291776)"><g/></g></g><g fill="#800020" fill-opacity="1"><g transform="translate(176.195884, 207.291776)"><g/></g></g><g fill="#800020" fill-opacity="1"><g transform="translate(185.562866, 207.291776)"><g/></g></g><g fill="#800020" fill-opacity="1"><g transform="translate(194.945831, 207.291776)"><g><path d="M 13.765625 -26.03125 L 13.765625 -10.140625 C 13.765625 -9.035156 14.03125 -8.234375 14.5625 -7.734375 C 15.09375 -7.242188 15.992188 -7 17.265625 -7 L 21.109375 -7 L 21.109375 0 L 15.890625 0 C 8.890625 0 5.390625 -3.398438 5.390625 -10.203125 L 5.390625 -26.03125 L 1.484375 -26.03125 L 1.484375 -32.859375 L 5.390625 -32.859375 L 5.390625 -40.984375 L 13.765625 -40.984375 L 13.765625 -32.859375 L 21.109375 -32.859375 L 21.109375 -26.03125 Z M 13.765625 -26.03125 "/></g></g></g><g fill="#800020" fill-opacity="1"><g transform="translate(213.207509, 207.291776)"><g><path d="M 35.109375 -32.859375 L 35.109375 0 L 26.75 0 L 26.75 -4.15625 C 25.6875 -2.726562 24.289062 -1.609375 22.5625 -0.796875 C 20.84375 0.015625 18.976562 0.421875 16.96875 0.421875 C 14.394531 0.421875 12.117188 -0.117188 10.140625 -1.203125 C 8.160156 -2.296875 6.609375 -3.898438 5.484375 -6.015625 C 4.359375 -8.128906 3.796875 -10.648438 3.796875 -13.578125 L 3.796875 -32.859375 L 12.09375 -32.859375 L 12.09375 -14.765625 C 12.09375 -12.160156 12.742188 -10.15625 14.046875 -8.75 C 15.359375 -7.34375 17.140625 -6.640625 19.390625 -6.640625 C 21.679688 -6.640625 23.476562 -7.34375 24.78125 -8.75 C 26.09375 -10.15625 26.75 -12.160156 26.75 -14.765625 L 26.75 -32.859375 Z M 35.109375 -32.859375 "/></g></g></g><g fill="#800020" fill-opacity="1"><g transform="translate(247.657534, 207.291776)"><g><path d="M 13.765625 -26.03125 L 13.765625 -10.140625 C 13.765625 -9.035156 14.03125 -8.234375 14.5625 -7.734375 C 15.09375 -7.242188 15.992188 -7 17.265625 -7 L 21.109375 -7 L 21.109375 0 L 15.890625 0 C 8.890625 0 5.390625 -3.398438 5.390625 -10.203125 L 5.390625 -26.03125 L 1.484375 -26.03125 L 1.484375 -32.859375 L 5.390625 -32.859375 L 5.390625 -40.984375 L 13.765625 -40.984375 L 13.765625 -32.859375 L 21.109375 -32.859375 L 21.109375 -26.03125 Z M 13.765625 -26.03125 "/></g></g></g><g fill="#800020" fill-opacity="1"><g transform="translate(265.919209, 207.291776)"><g><path d="M 18.6875 0.53125 C 15.519531 0.53125 12.671875 -0.164062 10.140625 -1.5625 C 7.609375 -2.96875 5.617188 -4.957031 4.171875 -7.53125 C 2.734375 -10.101562 2.015625 -13.066406 2.015625 -16.421875 C 2.015625 -19.785156 2.753906 -22.753906 4.234375 -25.328125 C 5.722656 -27.898438 7.75 -29.882812 10.3125 -31.28125 C 12.882812 -32.6875 15.753906 -33.390625 18.921875 -33.390625 C 22.085938 -33.390625 24.953125 -32.6875 27.515625 -31.28125 C 30.085938 -29.882812 32.113281 -27.898438 33.59375 -25.328125 C 35.082031 -22.753906 35.828125 -19.785156 35.828125 -16.421875 C 35.828125 -13.066406 35.0625 -10.101562 33.53125 -7.53125 C 32.007812 -4.957031 29.953125 -2.96875 27.359375 -1.5625 C 24.773438 -0.164062 21.882812 0.53125 18.6875 0.53125 Z M 18.6875 -6.703125 C 20.1875 -6.703125 21.597656 -7.066406 22.921875 -7.796875 C 24.242188 -8.523438 25.300781 -9.617188 26.09375 -11.078125 C 26.882812 -12.546875 27.28125 -14.328125 27.28125 -16.421875 C 27.28125 -19.546875 26.457031 -21.945312 24.8125 -23.625 C 23.175781 -25.3125 21.171875 -26.15625 18.796875 -26.15625 C 16.429688 -26.15625 14.445312 -25.3125 12.84375 -23.625 C 11.238281 -21.945312 10.4375 -19.546875 10.4375 -16.421875 C 10.4375 -13.304688 11.21875 -10.90625 12.78125 -9.21875 C 14.34375 -7.539062 16.3125 -6.703125 18.6875 -6.703125 Z M 18.6875 -6.703125 "/></g></g></g><g fill="#800020" fill-opacity="1"><g transform="translate(299.005384, 207.291776)"><g><path d="M 12.390625 -27.765625 C 13.460938 -29.503906 14.859375 -30.863281 16.578125 -31.84375 C 18.296875 -32.832031 20.265625 -33.328125 22.484375 -33.328125 L 22.484375 -24.609375 L 20.28125 -24.609375 C 17.675781 -24.609375 15.707031 -23.992188 14.375 -22.765625 C 13.050781 -21.546875 12.390625 -19.414062 12.390625 -16.375 L 12.390625 0 L 4.09375 0 L 4.09375 -32.859375 L 12.390625 -32.859375 Z M 12.390625 -27.765625 "/></g></g></g><path fill="#22b573" d="M 175.683594 170.835938 L 170.425781 170.835938 L 170.425781 164.089844 C 170.425781 162.636719 171.582031 161.492188 173.054688 161.492188 C 174.527344 161.492188 175.683594 162.636719 175.683594 164.089844 Z M 175.683594 170.835938 " fill-opacity="1" fill-rule="nonzero"/><path fill="#4c4a49" d="M 162.648438 176.957031 C 162.648438 171.351562 167.273438 166.683594 173.054688 166.683594 C 178.835938 166.683594 183.464844 171.25 183.464844 176.957031 Z M 162.648438 176.957031 " fill-opacity="1" fill-rule="nonzero"/><path fill="#b5addf" d="M 186.722656 181.523438 L 159.386719 181.523438 L 159.386719 177.890625 C 159.386719 175.296875 161.492188 173.222656 164.117188 173.222656 L 181.886719 173.222656 C 184.515625 173.222656 186.617188 175.296875 186.617188 177.890625 L 186.617188 181.523438 Z M 186.722656 181.523438 " fill-opacity="1" fill-rule="nonzero"/><g clip-path="url(#ba68f4f1c0)"><path fill="#4c4a49" d="M 151.398438 195.535156 C 148.769531 195.535156 146.667969 193.460938 146.667969 190.863281 C 146.667969 188.269531 148.769531 186.195312 151.398438 186.195312 Z M 151.398438 195.535156 " fill-opacity="1" fill-rule="nonzero"/></g><g clip-path="url(#7210de275c)"><path fill="#b5addf" d="M 183.570312 211.308594 L 163.59375 211.308594 C 162.015625 211.308594 160.648438 210.066406 160.648438 208.40625 L 160.648438 205.289062 L 186.40625 205.289062 L 186.40625 208.40625 C 186.40625 210.066406 185.144531 211.308594 183.570312 211.308594 Z M 183.570312 211.308594 " fill-opacity="1" fill-rule="nonzero"/></g><g clip-path="url(#7abbf6f05e)"><path fill="#4c4a49" d="M 194.714844 195.535156 C 197.339844 195.535156 199.445312 193.460938 199.445312 190.863281 C 199.445312 188.269531 197.339844 186.195312 194.714844 186.195312 Z M 194.714844 195.535156 " fill-opacity="1" fill-rule="nonzero"/></g><path fill="#4c4a49" d="M 194.609375 193.976562 L 192.296875 193.976562 L 192.296875 174.363281 C 192.296875 173.738281 192.820312 173.222656 193.453125 173.222656 C 194.082031 173.222656 194.609375 173.738281 194.609375 174.363281 Z M 194.609375 193.976562 " fill-opacity="1" fill-rule="nonzero"/><path fill="#b5addf" d="M 191.664062 197.089844 L 187.5625 197.089844 L 187.5625 184.742188 L 191.664062 184.742188 C 194.082031 184.742188 196.183594 186.714844 196.183594 189.203125 L 196.183594 192.628906 C 196.183594 195.121094 194.1875 197.089844 191.664062 197.089844 Z M 191.664062 197.089844 " fill-opacity="1" fill-rule="nonzero"/><path fill="#4c4a49" d="M 151.398438 193.976562 L 153.710938 193.976562 L 153.710938 174.363281 C 153.710938 173.738281 153.183594 173.222656 152.554688 173.222656 C 151.921875 173.222656 151.398438 173.738281 151.398438 174.363281 Z M 151.398438 193.976562 " fill-opacity="1" fill-rule="nonzero"/><path fill="#b5addf" d="M 154.234375 197.089844 L 158.335938 197.089844 L 158.335938 184.742188 L 154.234375 184.742188 C 151.816406 184.742188 149.714844 186.714844 149.714844 189.203125 L 149.714844 192.628906 C 149.820312 195.121094 151.816406 197.089844 154.234375 197.089844 Z M 154.234375 197.089844 " fill-opacity="1" fill-rule="nonzero"/><path fill="#4c4a49" d="M 187.039062 207.054688 L 159.597656 207.054688 C 157.707031 207.054688 156.128906 205.5 156.128906 203.628906 L 156.128906 179.65625 C 156.128906 177.789062 157.707031 176.230469 159.597656 176.230469 L 187.039062 176.230469 C 188.929688 176.230469 190.507812 177.789062 190.507812 179.65625 L 190.507812 203.734375 C 190.507812 205.601562 188.929688 207.054688 187.039062 207.054688 Z M 187.039062 207.054688 " fill-opacity="1" fill-rule="nonzero"/><path fill="#60f07b" d="M 182.414062 202.488281 L 164.222656 202.488281 C 162.121094 202.488281 160.4375 200.828125 160.4375 198.753906 L 160.4375 184.636719 C 160.4375 182.5625 162.121094 180.902344 164.222656 180.902344 L 182.414062 180.902344 C 184.515625 180.902344 186.199219 182.5625 186.199219 184.636719 L 186.199219 198.753906 C 186.199219 200.828125 184.515625 202.488281 182.414062 202.488281 Z M 182.414062 202.488281 " fill-opacity="1" fill-rule="nonzero"/><path fill="#4c4a49" d="M 168.21875 189.101562 C 168.21875 189.402344 168.160156 189.695312 168.042969 189.972656 C 167.925781 190.253906 167.757812 190.5 167.542969 190.714844 C 167.324219 190.929688 167.074219 191.09375 166.792969 191.210938 C 166.507812 191.324219 166.210938 191.382812 165.90625 191.382812 C 165.597656 191.382812 165.304688 191.324219 165.019531 191.210938 C 164.738281 191.09375 164.488281 190.929688 164.269531 190.714844 C 164.054688 190.5 163.886719 190.253906 163.769531 189.972656 C 163.652344 189.695312 163.59375 189.402344 163.59375 189.101562 C 163.59375 188.796875 163.652344 188.507812 163.769531 188.226562 C 163.886719 187.945312 164.054688 187.699219 164.269531 187.484375 C 164.488281 187.273438 164.738281 187.105469 165.019531 186.992188 C 165.304688 186.875 165.597656 186.816406 165.90625 186.816406 C 166.210938 186.816406 166.507812 186.875 166.792969 186.992188 C 167.074219 187.105469 167.324219 187.273438 167.542969 187.484375 C 167.757812 187.699219 167.925781 187.945312 168.042969 188.226562 C 168.160156 188.507812 168.21875 188.796875 168.21875 189.101562 Z M 168.21875 189.101562 " fill-opacity="1" fill-rule="nonzero"/><path fill="#4c4a49" d="M 183.464844 189.101562 C 183.464844 189.402344 183.40625 189.695312 183.289062 189.972656 C 183.171875 190.253906 183.003906 190.5 182.785156 190.714844 C 182.570312 190.929688 182.320312 191.09375 182.035156 191.210938 C 181.753906 191.324219 181.457031 191.382812 181.152344 191.382812 C 180.84375 191.382812 180.550781 191.324219 180.265625 191.210938 C 179.980469 191.09375 179.730469 190.929688 179.515625 190.714844 C 179.296875 190.5 179.132812 190.253906 179.015625 189.972656 C 178.898438 189.695312 178.835938 189.402344 178.835938 189.101562 C 178.835938 188.796875 178.898438 188.507812 179.015625 188.226562 C 179.132812 187.945312 179.296875 187.699219 179.515625 187.484375 C 179.730469 187.273438 179.980469 187.105469 180.265625 186.992188 C 180.550781 186.875 180.84375 186.816406 181.152344 186.816406 C 181.457031 186.816406 181.753906 186.875 182.035156 186.992188 C 182.320312 187.105469 182.570312 187.273438 182.785156 187.484375 C 183.003906 187.699219 183.171875 187.945312 183.289062 188.226562 C 183.40625 188.507812 183.464844 188.796875 183.464844 189.101562 Z M 183.464844 189.101562 " fill-opacity="1" fill-rule="nonzero"/><path fill="#4c4a49" d="M 180.835938 198.335938 L 166.222656 198.335938 C 165.589844 198.335938 165.171875 197.921875 165.171875 197.300781 L 165.171875 196.363281 C 165.171875 195.742188 165.589844 195.328125 166.222656 195.328125 L 180.835938 195.328125 C 181.464844 195.328125 181.886719 195.742188 181.886719 196.363281 L 181.886719 197.300781 C 181.886719 197.816406 181.359375 198.335938 180.835938 198.335938 Z M 180.835938 198.335938 " fill-opacity="1" fill-rule="nonzero"/><g clip-path="url(#bb9f217551)"><path fill="#93278f" d="M 184.304688 155.578125 C 188.617188 155.578125 192.191406 159.105469 192.191406 163.363281 L 195.34375 163.363281 C 195.34375 157.34375 190.402344 152.464844 184.304688 152.464844 Z M 184.304688 155.578125 " fill-opacity="1" fill-rule="nonzero"/></g><path fill="#93278f" d="M 184.304688 160.246094 C 185.988281 160.246094 187.457031 161.699219 187.457031 163.363281 L 190.613281 163.363281 C 190.613281 160.039062 187.667969 157.132812 184.304688 157.132812 Z M 184.304688 160.246094 " fill-opacity="1" fill-rule="nonzero"/><path fill="#93278f" d="M 185.671875 164.503906 C 185.671875 164.847656 185.605469 165.179688 185.472656 165.496094 C 185.339844 165.8125 185.148438 166.09375 184.902344 166.335938 C 184.65625 166.582031 184.371094 166.769531 184.050781 166.898438 C 183.726562 167.03125 183.390625 167.097656 183.042969 167.097656 C 182.695312 167.097656 182.359375 167.03125 182.039062 166.898438 C 181.714844 166.769531 181.429688 166.582031 181.183594 166.335938 C 180.9375 166.09375 180.75 165.8125 180.613281 165.496094 C 180.480469 165.179688 180.414062 164.847656 180.414062 164.503906 C 180.414062 164.160156 180.480469 163.828125 180.613281 163.511719 C 180.75 163.191406 180.9375 162.910156 181.183594 162.667969 C 181.429688 162.425781 181.714844 162.238281 182.039062 162.105469 C 182.359375 161.972656 182.695312 161.910156 183.042969 161.910156 C 183.390625 161.910156 183.726562 161.972656 184.050781 162.105469 C 184.371094 162.238281 184.65625 162.425781 184.902344 162.667969 C 185.148438 162.910156 185.339844 163.191406 185.472656 163.511719 C 185.605469 163.828125 185.671875 164.160156 185.671875 164.503906 Z M 185.671875 164.503906 " fill-opacity="1" fill-rule="nonzero"/><g clip-path="url(#471d0b444c)"><path fill="#29abe2" d="M 160.964844 155.578125 C 156.652344 155.578125 153.078125 159.105469 153.078125 163.363281 L 149.925781 163.363281 C 149.925781 157.34375 154.867188 152.464844 160.964844 152.464844 Z M 160.964844 155.578125 " fill-opacity="1" fill-rule="nonzero"/></g><path fill="#29abe2" d="M 160.964844 160.246094 C 159.28125 160.246094 157.8125 161.699219 157.8125 163.363281 L 154.65625 163.363281 C 154.65625 160.039062 157.601562 157.132812 160.964844 157.132812 Z M 160.964844 160.246094 " fill-opacity="1" fill-rule="nonzero"/><path fill="#29abe2" d="M 164.855469 164.503906 C 164.855469 164.847656 164.789062 165.179688 164.65625 165.496094 C 164.519531 165.8125 164.332031 166.09375 164.085938 166.335938 C 163.839844 166.582031 163.554688 166.769531 163.230469 166.898438 C 162.910156 167.03125 162.574219 167.097656 162.226562 167.097656 C 161.878906 167.097656 161.542969 167.03125 161.21875 166.898438 C 160.898438 166.769531 160.613281 166.582031 160.367188 166.335938 C 160.121094 166.09375 159.929688 165.8125 159.796875 165.496094 C 159.664062 165.179688 159.597656 164.847656 159.597656 164.503906 C 159.597656 164.160156 159.664062 163.828125 159.796875 163.511719 C 159.929688 163.191406 160.121094 162.910156 160.367188 162.667969 C 160.613281 162.425781 160.898438 162.238281 161.21875 162.105469 C 161.542969 161.972656 161.878906 161.910156 162.226562 161.910156 C 162.574219 161.910156 162.910156 161.972656 163.230469 162.105469 C 163.554688 162.238281 163.839844 162.425781 164.085938 162.667969 C 164.332031 162.910156 164.519531 163.191406 164.65625 163.511719 C 164.789062 163.828125 164.855469 164.160156 164.855469 164.503906 Z M 164.855469 164.503906 " fill-opacity="1" fill-rule="nonzero"/></svg>